# xmcd
#
# Track frame offsets:
#	150
#	15907
#	28069
#	38951
#	52719
#	60025
#	71472
#	85478
#	96560
#	109069
#	123867
#	135471
#	149049
#	166789
#	180861
#	189077
#	201289
#	210185
#	216782
#	228623
#
# Disc length: 3179 seconds
#
# Revision: 1
# Processed by: cddbd v1.5.2PL0 Copyright (c) Steve Scherf et al.
# Submitted via: audiograbber 1.83.01
#
DISCID=050c6914
DTITLE=Brassens, Georges - Brassens - 20 titres inoubliables
DYEAR=1900
DGENRE=Chanson française
TTITLE0=Oncle Archibald
TTITLE1=Une jolie fleur (dans une peau de vache)
TTITLE2=Les croquants
TTITLE3=Chanson pour l'auvergnat
TTITLE4=Pauvre Martin
TTITLE5=Le petit cheval
TTITLE6=La prière
TTITLE7=Il n'y a pas d'amour heureux
TTITLE8=Les sabots d'Hélène
TTITLE9=Le gorille
TTITLE10=Le parapluie
TTITLE11=Amoureux des bancs publics
TTITLE12=Je me suis fait tout petit
TTITLE13=Auprès de mon arbre
TTITLE14=Marinette (j'avais l'air d'un c...)
TTITLE15=P... de toi
TTITLE16=Il suffit de passer le pont
TTITLE17=La cane de Jeanne
TTITLE18=La ronde des jurons
TTITLE19=La mauvaise réputation
EXTD=French songs
EXTT0=
EXTT1=
EXTT2=
EXTT3=
EXTT4=
EXTT5=
EXTT6=
EXTT7=
EXTT8=
EXTT9=
EXTT10=
EXTT11=
EXTT12=
EXTT13=
EXTT14=
EXTT15=
EXTT16=
EXTT17=
EXTT18=
EXTT19=
PLAYORDER=
